# xmcd
#
# Track frame offsets: 
#        187
#        13887
#        29860
#        44062
#        59780
#        77300
#        92262
#        107362
#        121122
#        139597
#        156330
#
# Disc length: 2332 seconds
#
# Revision: 5
# Processed by: cddbd v1.5.2PL0 Copyright (c) Steve Scherf et al.
# Submitted via: ExactAudioCopyFreeDBPlugin 1.0
#
DISCID=8c091a0b
DTITLE=Alabama - Cheap Seats
DYEAR=1993
DGENRE=Country
TTITLE0=Still Goin' Strong
TTITLE1=T.L.C. A.S.A.P.
TTITLE2=Katy Brought My Guitar Back Today
TTITLE3=On This Side Of The Moon
TTITLE4=The Cheap Seats
TTITLE5=Reckless
TTITLE6=That Feeling
TTITLE7=This Love's On Me
TTITLE8=Clear Water Blues
TTITLE9=A Better Word For Love
TTITLE10=Angels Among Us
EXTD=
EXTT0=
EXTT1=
EXTT2=
EXTT3=
EXTT4=
EXTT5=
EXTT6=
EXTT7=
EXTT8=
EXTT9=
EXTT10=
PLAYORDER=
